# xmcd
#
# Track frame offsets: 
#        150
#        18237
#        36196
#        55379
#        74384
#        93623
#        119488
#        136239
#        150882
#        167649
#        184684
#        202959
#
# Disc length: 2937 seconds
#
# Revision: 2
# Processed by: cddbd v1.5.2PL0 Copyright (c) Steve Scherf et al.
# Submitted via: ExactAudioCopy v1.0b1
#
DISCID=9c0b770c
DTITLE=Various Artist - Think Like A Man Soundtrack
DYEAR=2012
DGENRE=Soul
TTITLE0=Think Like A Man
TTITLE1=John Legend feat Ludacris - Tonight (Best You Ever Had)
TTITLE2=Kelly Rowland feat Future and Bei Maejor - Need A Reason
TTITLE3=Won't Make A Fool Out of You
TTITLE4=Quadron - Baby Be Mine
TTITLE5=Earth, Wind and Fire  - That's The Way Of The World#
TTITLE6=Keri Hilton - Freedom Ride
TTITLE7=Billy Wes - Shake That Jelly
TTITLE8=Ravaughn - Same Ol BS
TTITLE9=Brandon Hines - Fire
TTITLE10=Future - Motion Picture
TTITLE11=Never Too Much
EXTD=
EXTT0=
EXTT1=
EXTT2=
EXTT3=
EXTT4=
EXTT5=
EXTT6=
EXTT7=
EXTT8=
EXTT9=
EXTT10=
EXTT11=
PLAYORDER=
